<svg width="621" height="200" viewBox="0 0 621 200" fill="none" xmlns="http://www.w3.org/2000/svg">
<path d="M196.487 0H115.161C114.181 0 113.246 0.445636 112.633 1.2142L101.01 15.7716C99.714 17.3927 97.2501 17.3927 95.9537 15.7716L84.3312 1.2142C83.7185 0.445636 82.7897 0 81.8029 0H3.2378C1.45121 0 0 1.45316 0 3.24216V85.0841C0 86.0658 0.445036 87.0023 1.21256 87.6158L13.9961 97.8461C15.615 99.1443 15.615 101.611 13.9961 102.91L1.21256 113.14C0.445036 113.753 0 114.683 0 115.672V196.758C0 198.547 1.45121 200 3.2378 200H82.4091C83.3895 200 84.3247 199.554 84.9375 198.786L95.9537 184.984C97.2501 183.363 99.714 183.363 101.01 184.984L112.027 198.786C112.639 199.554 113.568 200 114.555 200H196.487C198.273 200 199.725 198.547 199.725 196.758V117.88C199.725 116.899 199.28 115.962 198.512 115.349L182.974 102.91C181.356 101.611 181.356 99.1443 182.974 97.8461L198.512 85.407C199.28 84.7935 199.725 83.8635 199.725 82.8753V3.24216C199.725 1.45316 198.273 0 196.487 0ZM124.468 28.0815L102.075 50.415C100.81 51.6744 98.7723 51.6744 97.5081 50.415L75.1144 28.0815C73.0698 26.0406 74.5146 22.5466 77.3976 22.5466H122.179C125.062 22.5466 126.506 26.0406 124.462 28.0815H124.468ZM27.9986 75.2672L50.302 97.6911C51.5597 98.9569 51.5597 100.998 50.302 102.264L27.9986 124.688C25.9605 126.735 22.4711 125.288 22.4711 122.401V77.56C22.4711 74.673 25.9605 73.2263 27.9986 75.2737V75.2672ZM75.1209 171.867L97.5146 149.533C98.7787 148.274 100.817 148.274 102.081 149.533L124.475 171.867C126.519 173.908 125.075 177.402 122.192 177.402H77.4105C74.5275 177.402 73.0827 173.908 75.1273 171.867H75.1209ZM176.312 38.6411L117.567 97.6911C116.309 98.9569 116.309 100.998 117.567 102.264L176.312 161.314C176.918 161.921 177.254 162.741 177.254 163.6V174.256C177.254 176.045 175.802 177.499 174.016 177.499H163.277C162.419 177.499 161.6 177.156 160.994 176.556L102.075 117.783C100.81 116.524 98.7723 116.524 97.5081 117.783L38.5892 176.556C37.9829 177.163 37.1638 177.499 36.3059 177.499H25.7089C23.9223 177.499 22.4711 176.045 22.4711 174.256V163.458C22.4711 162.599 22.813 161.779 23.4128 161.172L82.0157 102.264C83.2734 100.998 83.2734 98.9569 82.0157 97.6911L23.4128 38.7768C22.8065 38.1697 22.4711 37.3494 22.4711 36.4905V25.7371C22.4711 23.9481 23.9223 22.4949 25.7089 22.4949H36.3511C37.2089 22.4949 38.028 22.8372 38.6343 23.4379L97.5081 82.1649C98.7723 83.4243 100.81 83.4243 102.075 82.1649L160.948 23.4379C161.555 22.8308 162.374 22.4949 163.232 22.4949H174.016C175.802 22.4949 177.254 23.9481 177.254 25.7371V36.3484C177.254 37.2073 176.912 38.0276 176.312 38.6347V38.6411ZM177.118 122.395C177.118 125.282 173.629 126.728 171.591 124.681L149.287 102.257C148.029 100.991 148.029 98.9505 149.287 97.6846L171.591 75.2608C173.629 73.2134 177.118 74.6601 177.118 77.5471V122.395Z" fill="#FF1900"/>
<path d="M294.64 59.2179C294.64 61.9757 294.756 69.4546 294.066 75.4351C292.57 87.745 283.727 95.6825 266.151 95.6825C250.298 95.6825 242.487 89.2434 239.384 80.2661C236.856 73.2522 236.056 61.8594 236.056 48.5162C236.056 35.1729 236.747 29.1924 238.469 20.5638C240.765 8.71896 251.91 2.04734 266.957 2.04734C283.727 2.04734 292.46 9.86857 293.95 24.1354C294.292 27.8167 294.524 35.6379 294.524 39.203H272.008C271.891 35.2892 271.891 30.6907 271.434 27.8167C271.092 25.0589 269.363 23.3281 266.493 23.3281C263.623 23.3281 261.785 25.285 261.327 28.0428C260.411 34.0233 260.295 41.5022 260.295 48.0576C260.295 58.6431 260.869 68.305 261.443 70.7204C262.249 74.0595 264.087 74.9766 266.609 74.9766C269.131 74.9766 271.092 73.827 271.434 70.6042C272.008 66.348 272.124 60.826 272.124 59.2179H294.64Z" fill="white"/>
<path d="M327.495 1.93109C344.839 1.93109 353.804 10.1011 355.984 21.7134C356.79 25.7371 357.48 33.216 357.48 47.7089C357.48 60.1285 357.139 69.6806 355.3 76.9271C351.74 90.7288 343.471 95.9085 327.502 95.9085C310.616 95.9085 302.689 89.5792 299.587 76.701C297.749 69.4546 297.749 59.9089 297.749 48.5226C297.749 35.5217 298.091 28.1655 299.129 23.102C301.773 11.0246 308.546 1.93755 327.502 1.93755L327.495 1.93109ZM327.727 76.01C330.714 76.01 332.32 73.5945 332.784 71.0627C333.59 66.1155 333.932 59.7927 333.932 48.8649C333.932 42.7681 333.816 30.5745 333.126 27.2419C332.436 23.7931 331.172 22.0687 327.727 22.0687C324.283 22.0687 323.019 23.9093 322.329 27.3582C321.755 30.4647 321.413 42.6583 321.413 48.8714C321.413 60.0316 321.871 66.9293 322.561 71.1855C323.019 73.8334 324.515 76.0164 327.727 76.0164V76.01Z" fill="white"/>
<path d="M442.024 94.6427H420.656V46.7917L411.923 94.6427H392.393L382.976 46.7917V94.6427H361.724V2.85465H392.967L402.158 49.4397L411.691 2.85465H442.018V94.6427H442.024Z" fill="white"/>
<path d="M503.136 87.8548C499.692 91.9947 493.945 94.6427 483.955 94.6427H447.539V2.85465H483.838C493.029 2.85465 498.654 5.61243 501.872 9.64252C504.4 12.8653 505.89 18.1548 505.89 24.5939C505.89 31.033 505.084 37.7047 502.446 41.386C500.608 44.4925 497.622 46.5592 492.913 47.1341C498.196 47.7089 501.756 50.2406 504.059 53.3471C506.813 57.0285 507.503 63.1253 507.503 69.4481C507.503 77.2694 506.239 84.0572 503.136 87.8548ZM481.542 30.4582C481.542 27.468 481.31 24.7037 480.852 23.3281C480.394 21.8297 479.014 21.1451 477.176 21.1451H470.629V40.4689H477.75C478.898 40.4689 480.504 39.8941 480.968 37.8209C481.2 36.4388 481.542 34.1396 481.542 30.4582ZM481.775 73.8205C482.116 72.3222 482.349 69.1058 482.349 66.8066C482.349 64.1586 482.232 61.4009 481.775 59.9025C481.2 57.9456 479.936 57.3708 478.33 57.3708H470.636V76.5783H478.214C480.169 76.5783 481.2 75.8872 481.775 73.8205Z" fill="white"/>
<path d="M534.96 71.9863L531.857 94.6491H508.541L524.163 2.86111H557.592L571.833 94.6491H548.169L545.299 71.9863H534.96ZM543.344 54.9617C543.344 54.9617 541.622 42.4258 541.274 40.2364C540.358 34.5981 540.126 28.3915 540.126 28.3915C540.126 28.3915 540.01 34.4883 539.094 40.2364C538.752 42.5356 536.798 54.9617 536.798 54.9617H543.344Z" fill="white"/>
<path d="M621 24.1354H606.178V94.6491H582.514V24.1354H567.808V2.85465H620.994V24.1354H621Z" fill="white"/>
<path d="M317.73 198.056H296.362V150.205L287.629 198.056H268.099L258.682 150.205V198.056H237.43V106.268H268.673L277.864 152.853L287.397 106.268H317.724V198.056H317.73Z" fill="white"/>
<path d="M346.677 175.393L343.575 198.056H320.259L335.88 106.268H369.309L383.55 198.056H359.886L357.016 175.393H346.677ZM355.062 158.369C355.062 158.369 353.34 145.833 352.991 143.643C352.075 138.005 351.843 131.798 351.843 131.798C351.843 131.798 351.727 137.895 350.811 143.643C350.469 145.942 348.515 158.369 348.515 158.369H355.062Z" fill="white"/>
<path d="M443.63 133.988C443.63 141.35 442.598 146.298 441.102 149.863C439.264 154.003 436.968 156.302 434.556 157.342L446.159 198.062H422.153L413.652 163.096H408.943V198.062H386.311V106.274H421.005C428.931 106.274 435.02 108.922 438.58 113.863C441.683 118.236 443.637 125.023 443.637 133.994L443.63 133.988ZM420.314 136.287C420.314 133.988 419.856 131.114 419.508 130.19C418.818 128.35 417.096 126.858 414.916 126.858H409.285V144.457C409.517 144.457 415.258 144.341 415.258 144.341C416.864 144.341 418.818 143.533 419.276 142.158C419.734 141.008 420.308 138.244 420.308 136.293L420.314 136.287Z" fill="white"/>
<path d="M485.683 198.056L475.002 167.572L472.59 172.061V198.056H449.384V106.268H472.59V139.051L487.637 106.268H512.108L493.152 145.949L511.992 198.056H485.683Z" fill="white"/>
<path d="M564.022 198.056H514.972V106.268H563.79V127.549H538.172V141.809H562.294V161.94H538.172V177.24H564.016V198.062L564.022 198.056Z" fill="white"/>
<path d="M619.388 127.542H604.566V198.056H580.902V127.542H566.196V106.261H619.381V127.542H619.388Z" fill="white"/>
</svg>
