<svg xmlns="http://www.w3.org/2000/svg" fill="none" viewBox="0 0 301 301" height="301" width="301">
<rect fill="black" rx="92" height="300" width="300" y="0.482178" x="0.482422"></rect>
<path fill="white" d="M77.8471 66.9431L61.998 71.3713L223.056 234.021L238.905 229.593L77.8471 66.9431Z" clip-rule="evenodd" fill-rule="evenodd"></path>
<path fill="white" d="M71.4189 110.599L55.5928 115.027L154.932 215.378C145.707 216.091 136.449 214.785 127.792 211.55C119.135 208.314 111.282 203.225 104.77 196.63C97.125 188.915 91.5472 179.361 88.5551 168.856L71.4609 151.565C71.5893 172.459 79.8397 192.417 94.4343 207.139C105.769 218.573 120.303 226.226 136.102 229.079C151.9 231.932 168.212 229.849 182.864 223.109L71.4189 110.599Z" clip-rule="evenodd" fill-rule="evenodd"></path>
<path fill="white" d="M229.524 190.354L245.373 185.903L146.033 85.5759C155.259 84.8628 164.516 86.1686 173.173 89.4042C181.83 92.6398 189.683 97.7286 196.196 104.324C203.849 112.036 209.435 121.59 212.433 132.097L229.505 149.342C229.395 128.449 221.151 108.486 206.554 93.7677C195.214 82.3349 180.676 74.6829 164.874 71.83C149.073 68.9772 132.758 71.0588 118.101 77.7981L229.524 190.354Z" clip-rule="evenodd" fill-rule="evenodd"></path>
</svg>
